<mxfile host="65bd71144e" modified="2021-01-15T14:59:00.850Z" agent="5.0 (Windows NT 10.0; Win64; x64) AppleWebKit/537.36 (KHTML, like Gecko) Code/1.52.1 Chrome/83.0.4103.122 Electron/9.3.5 Safari/537.36" etag="u1y-abUgjkjHkxvF5fcN" version="13.10.0" type="embed">
    <diagram name="Page-1" id="c7558073-3199-34d8-9f00-42111426c3f3">
        <mxGraphModel dx="2092" dy="800" grid="1" gridSize="10" guides="1" tooltips="1" connect="1" arrows="1" fold="1" page="1" pageScale="1" pageWidth="826" pageHeight="1169" background="#ffffff" math="0" shadow="0">
            <root>
                <mxCell id="0"/>
                <mxCell id="1" parent="0"/>
                <mxCell id="91ix18rcLDIFfsx1idJ1-46" style="edgeStyle=orthogonalEdgeStyle;rounded=0;orthogonalLoop=1;jettySize=auto;html=1;exitX=1;exitY=0.5;exitDx=0;exitDy=0;entryX=0;entryY=0.5;entryDx=0;entryDy=0;" parent="1" source="91ix18rcLDIFfsx1idJ1-42" target="91ix18rcLDIFfsx1idJ1-43" edge="1">
                    <mxGeometry relative="1" as="geometry">
                        <mxPoint x="398.1199999999999" y="817.5" as="targetPoint"/>
                    </mxGeometry>
                </mxCell>
                <mxCell id="91ix18rcLDIFfsx1idJ1-47" value="否" style="edgeLabel;html=1;align=center;verticalAlign=middle;resizable=0;points=[];" parent="91ix18rcLDIFfsx1idJ1-46" vertex="1" connectable="0">
                    <mxGeometry x="-0.2949" y="-1" relative="1" as="geometry">
                        <mxPoint y="1" as="offset"/>
                    </mxGeometry>
                </mxCell>
                <mxCell id="91ix18rcLDIFfsx1idJ1-101" style="edgeStyle=orthogonalEdgeStyle;rounded=0;orthogonalLoop=1;jettySize=auto;html=1;exitX=0.5;exitY=1;exitDx=0;exitDy=0;entryX=0.5;entryY=0;entryDx=0;entryDy=0;" parent="1" source="91ix18rcLDIFfsx1idJ1-42" target="91ix18rcLDIFfsx1idJ1-100" edge="1">
                    <mxGeometry relative="1" as="geometry"/>
                </mxCell>
                <mxCell id="91ix18rcLDIFfsx1idJ1-42" value="第1个节点是否还要自旋" style="rhombus;whiteSpace=wrap;html=1;" parent="1" vertex="1">
                    <mxGeometry x="200" y="790" width="100.63" height="55" as="geometry"/>
                </mxCell>
                <mxCell id="91ix18rcLDIFfsx1idJ1-76" value="是" style="edgeStyle=orthogonalEdgeStyle;rounded=0;orthogonalLoop=1;jettySize=auto;html=1;exitX=0.5;exitY=1;exitDx=0;exitDy=0;entryX=0.5;entryY=0;entryDx=0;entryDy=0;" parent="1" source="91ix18rcLDIFfsx1idJ1-43" target="91ix18rcLDIFfsx1idJ1-75" edge="1">
                    <mxGeometry relative="1" as="geometry"/>
                </mxCell>
                <mxCell id="91ix18rcLDIFfsx1idJ1-79" style="edgeStyle=orthogonalEdgeStyle;rounded=0;orthogonalLoop=1;jettySize=auto;html=1;exitX=1;exitY=0.5;exitDx=0;exitDy=0;" parent="1" source="91ix18rcLDIFfsx1idJ1-43" target="91ix18rcLDIFfsx1idJ1-78" edge="1">
                    <mxGeometry relative="1" as="geometry"/>
                </mxCell>
                <mxCell id="91ix18rcLDIFfsx1idJ1-43" value="节点状态为0？" style="rhombus;whiteSpace=wrap;html=1;" parent="1" vertex="1">
                    <mxGeometry x="400" y="795" width="90.63" height="45" as="geometry"/>
                </mxCell>
                <mxCell id="91ix18rcLDIFfsx1idJ1-45" value="否" style="edgeStyle=orthogonalEdgeStyle;rounded=0;orthogonalLoop=1;jettySize=auto;html=1;exitX=1;exitY=0.5;exitDx=0;exitDy=0;entryX=0;entryY=0.5;entryDx=0;entryDy=0;" parent="1" source="91ix18rcLDIFfsx1idJ1-44" target="91ix18rcLDIFfsx1idJ1-64" edge="1">
                    <mxGeometry relative="1" as="geometry"/>
                </mxCell>
                <mxCell id="91ix18rcLDIFfsx1idJ1-53" value="是" style="edgeStyle=orthogonalEdgeStyle;rounded=0;orthogonalLoop=1;jettySize=auto;html=1;exitX=0.5;exitY=1;exitDx=0;exitDy=0;entryX=0.5;entryY=0;entryDx=0;entryDy=0;" parent="1" source="91ix18rcLDIFfsx1idJ1-44" target="91ix18rcLDIFfsx1idJ1-52" edge="1">
                    <mxGeometry relative="1" as="geometry"/>
                </mxCell>
                <mxCell id="91ix18rcLDIFfsx1idJ1-44" value="是第1次请求" style="rhombus;whiteSpace=wrap;html=1;" parent="1" vertex="1">
                    <mxGeometry x="-250" y="797.5" width="87.5" height="40" as="geometry"/>
                </mxCell>
                <mxCell id="91ix18rcLDIFfsx1idJ1-49" value="失败" style="edgeStyle=orthogonalEdgeStyle;rounded=0;orthogonalLoop=1;jettySize=auto;html=1;exitX=0.5;exitY=1;exitDx=0;exitDy=0;entryX=0.5;entryY=0;entryDx=0;entryDy=0;" parent="1" source="91ix18rcLDIFfsx1idJ1-48" target="91ix18rcLDIFfsx1idJ1-166" edge="1">
                    <mxGeometry relative="1" as="geometry"/>
                </mxCell>
                <mxCell id="91ix18rcLDIFfsx1idJ1-142" value="成功" style="edgeStyle=orthogonalEdgeStyle;rounded=0;orthogonalLoop=1;jettySize=auto;html=1;exitX=1;exitY=0.5;exitDx=0;exitDy=0;entryX=0;entryY=0.5;entryDx=0;entryDy=0;" parent="1" source="91ix18rcLDIFfsx1idJ1-48" target="91ix18rcLDIFfsx1idJ1-143" edge="1">
                    <mxGeometry relative="1" as="geometry">
                        <mxPoint x="-120" y="653" as="targetPoint"/>
                    </mxGeometry>
                </mxCell>
                <mxCell id="91ix18rcLDIFfsx1idJ1-48" value="尝试加锁" style="rhombus;whiteSpace=wrap;html=1;" parent="1" vertex="1">
                    <mxGeometry x="-240" y="635" width="67.5" height="35" as="geometry"/>
                </mxCell>
                <mxCell id="91ix18rcLDIFfsx1idJ1-51" value="是" style="edgeStyle=orthogonalEdgeStyle;rounded=0;orthogonalLoop=1;jettySize=auto;html=1;exitX=0.5;exitY=1;exitDx=0;exitDy=0;entryX=0.5;entryY=0;entryDx=0;entryDy=0;" parent="1" source="91ix18rcLDIFfsx1idJ1-50" target="91ix18rcLDIFfsx1idJ1-48" edge="1">
                    <mxGeometry relative="1" as="geometry"/>
                </mxCell>
                <mxCell id="91ix18rcLDIFfsx1idJ1-171" style="edgeStyle=orthogonalEdgeStyle;rounded=0;orthogonalLoop=1;jettySize=auto;html=1;exitX=0;exitY=0.5;exitDx=0;exitDy=0;entryX=0;entryY=0.5;entryDx=0;entryDy=0;" parent="1" source="91ix18rcLDIFfsx1idJ1-50" target="91ix18rcLDIFfsx1idJ1-44" edge="1">
                    <mxGeometry relative="1" as="geometry">
                        <Array as="points">
                            <mxPoint x="-270" y="565"/>
                            <mxPoint x="-270" y="818"/>
                        </Array>
                    </mxGeometry>
                </mxCell>
                <mxCell id="91ix18rcLDIFfsx1idJ1-172" value="否" style="edgeLabel;html=1;align=center;verticalAlign=middle;resizable=0;points=[];" parent="91ix18rcLDIFfsx1idJ1-171" vertex="1" connectable="0">
                    <mxGeometry x="-0.4365" relative="1" as="geometry">
                        <mxPoint as="offset"/>
                    </mxGeometry>
                </mxCell>
                <mxCell id="91ix18rcLDIFfsx1idJ1-50" value="&lt;span&gt;是第一节点或前继为null&lt;/span&gt;" style="rhombus;whiteSpace=wrap;html=1;" parent="1" vertex="1">
                    <mxGeometry x="-255" y="540" width="97.5" height="50" as="geometry"/>
                </mxCell>
                <mxCell id="91ix18rcLDIFfsx1idJ1-57" style="edgeStyle=orthogonalEdgeStyle;rounded=0;orthogonalLoop=1;jettySize=auto;html=1;exitX=0;exitY=0.5;exitDx=0;exitDy=0;entryX=0;entryY=0.5;entryDx=0;entryDy=0;" parent="1" source="91ix18rcLDIFfsx1idJ1-52" target="91ix18rcLDIFfsx1idJ1-55" edge="1">
                    <mxGeometry relative="1" as="geometry"/>
                </mxCell>
                <mxCell id="91ix18rcLDIFfsx1idJ1-52" value="创建Node" style="rounded=0;whiteSpace=wrap;html=1;fillColor=#dae8fc;strokeColor=#6c8ebf;" parent="1" vertex="1">
                    <mxGeometry x="-258.12" y="875" width="103.75" height="40" as="geometry"/>
                </mxCell>
                <mxCell id="91ix18rcLDIFfsx1idJ1-109" style="edgeStyle=orthogonalEdgeStyle;rounded=0;orthogonalLoop=1;jettySize=auto;html=1;exitX=0.5;exitY=1;exitDx=0;exitDy=0;" parent="1" source="91ix18rcLDIFfsx1idJ1-55" target="91ix18rcLDIFfsx1idJ1-108" edge="1">
                    <mxGeometry relative="1" as="geometry"/>
                </mxCell>
                <mxCell id="91ix18rcLDIFfsx1idJ1-55" value="循环开始" style="rounded=0;whiteSpace=wrap;html=1;fillColor=#dae8fc;strokeColor=#6c8ebf;" parent="1" vertex="1">
                    <mxGeometry x="-258.12" y="320" width="103.75" height="40" as="geometry"/>
                </mxCell>
                <mxCell id="91ix18rcLDIFfsx1idJ1-65" style="edgeStyle=orthogonalEdgeStyle;rounded=0;orthogonalLoop=1;jettySize=auto;html=1;exitX=1;exitY=0.5;exitDx=0;exitDy=0;entryX=0;entryY=0.5;entryDx=0;entryDy=0;" parent="1" source="91ix18rcLDIFfsx1idJ1-64" target="91ix18rcLDIFfsx1idJ1-42" edge="1">
                    <mxGeometry relative="1" as="geometry">
                        <mxPoint x="30" y="830" as="targetPoint"/>
                    </mxGeometry>
                </mxCell>
                <mxCell id="91ix18rcLDIFfsx1idJ1-67" value="是" style="edgeStyle=orthogonalEdgeStyle;rounded=0;orthogonalLoop=1;jettySize=auto;html=1;exitX=0.5;exitY=1;exitDx=0;exitDy=0;entryX=0.5;entryY=0;entryDx=0;entryDy=0;" parent="1" source="91ix18rcLDIFfsx1idJ1-64" target="91ix18rcLDIFfsx1idJ1-68" edge="1">
                    <mxGeometry relative="1" as="geometry">
                        <mxPoint x="41.875" y="872.5" as="targetPoint"/>
                    </mxGeometry>
                </mxCell>
                <mxCell id="91ix18rcLDIFfsx1idJ1-64" value="不存在前继节点" style="rhombus;whiteSpace=wrap;html=1;" parent="1" vertex="1">
                    <mxGeometry y="797.5" width="87.5" height="40" as="geometry"/>
                </mxCell>
                <mxCell id="91ix18rcLDIFfsx1idJ1-70" value="是" style="edgeStyle=orthogonalEdgeStyle;rounded=0;orthogonalLoop=1;jettySize=auto;html=1;exitX=0.5;exitY=1;exitDx=0;exitDy=0;entryX=0.5;entryY=0;entryDx=0;entryDy=0;" parent="1" source="91ix18rcLDIFfsx1idJ1-68" target="91ix18rcLDIFfsx1idJ1-69" edge="1">
                    <mxGeometry relative="1" as="geometry"/>
                </mxCell>
                <mxCell id="91ix18rcLDIFfsx1idJ1-73" value="否" style="edgeStyle=orthogonalEdgeStyle;rounded=0;orthogonalLoop=1;jettySize=auto;html=1;exitX=0;exitY=0.5;exitDx=0;exitDy=0;entryX=1;entryY=0.5;entryDx=0;entryDy=0;" parent="1" source="91ix18rcLDIFfsx1idJ1-68" target="91ix18rcLDIFfsx1idJ1-72" edge="1">
                    <mxGeometry relative="1" as="geometry"/>
                </mxCell>
                <mxCell id="91ix18rcLDIFfsx1idJ1-68" value="队列为空" style="rhombus;whiteSpace=wrap;html=1;" parent="1" vertex="1">
                    <mxGeometry x="-1.5600000000000023" y="875" width="90.63" height="45" as="geometry"/>
                </mxCell>
                <mxCell id="91ix18rcLDIFfsx1idJ1-71" style="edgeStyle=orthogonalEdgeStyle;rounded=0;orthogonalLoop=1;jettySize=auto;html=1;exitX=0;exitY=0.5;exitDx=0;exitDy=0;entryX=0;entryY=0.5;entryDx=0;entryDy=0;" parent="1" source="91ix18rcLDIFfsx1idJ1-69" target="91ix18rcLDIFfsx1idJ1-55" edge="1">
                    <mxGeometry relative="1" as="geometry"/>
                </mxCell>
                <mxCell id="91ix18rcLDIFfsx1idJ1-69" value="初始化head=dummy node" style="rounded=0;whiteSpace=wrap;html=1;fillColor=#dae8fc;strokeColor=#6c8ebf;" parent="1" vertex="1">
                    <mxGeometry x="-8.119999999999996" y="950" width="103.75" height="40" as="geometry"/>
                </mxCell>
                <mxCell id="91ix18rcLDIFfsx1idJ1-74" style="edgeStyle=orthogonalEdgeStyle;rounded=0;orthogonalLoop=1;jettySize=auto;html=1;exitX=0.5;exitY=1;exitDx=0;exitDy=0;entryX=0;entryY=0.5;entryDx=0;entryDy=0;" parent="1" source="91ix18rcLDIFfsx1idJ1-72" target="91ix18rcLDIFfsx1idJ1-55" edge="1">
                    <mxGeometry relative="1" as="geometry"/>
                </mxCell>
                <mxCell id="91ix18rcLDIFfsx1idJ1-72" value="&lt;span&gt;casTail 链接入队&lt;/span&gt;" style="rounded=0;whiteSpace=wrap;html=1;fillColor=#dae8fc;strokeColor=#6c8ebf;" parent="1" vertex="1">
                    <mxGeometry x="-110" y="875" width="71.88" height="45" as="geometry"/>
                </mxCell>
                <mxCell id="91ix18rcLDIFfsx1idJ1-107" style="edgeStyle=orthogonalEdgeStyle;rounded=0;orthogonalLoop=1;jettySize=auto;html=1;exitX=0.5;exitY=1;exitDx=0;exitDy=0;entryX=0;entryY=0.5;entryDx=0;entryDy=0;" parent="1" source="91ix18rcLDIFfsx1idJ1-75" target="91ix18rcLDIFfsx1idJ1-55" edge="1">
                    <mxGeometry relative="1" as="geometry">
                        <Array as="points">
                            <mxPoint x="445" y="960"/>
                            <mxPoint x="-278" y="960"/>
                            <mxPoint x="-278" y="340"/>
                        </Array>
                    </mxGeometry>
                </mxCell>
                <mxCell id="91ix18rcLDIFfsx1idJ1-75" value="设置状态为&lt;br&gt;WAITING:1" style="rounded=0;whiteSpace=wrap;html=1;fillColor=#dae8fc;strokeColor=#6c8ebf;" parent="1" vertex="1">
                    <mxGeometry x="393.44" y="880" width="103.75" height="40" as="geometry"/>
                </mxCell>
                <mxCell id="91ix18rcLDIFfsx1idJ1-81" style="edgeStyle=orthogonalEdgeStyle;rounded=0;orthogonalLoop=1;jettySize=auto;html=1;exitX=0.5;exitY=1;exitDx=0;exitDy=0;" parent="1" source="91ix18rcLDIFfsx1idJ1-78" target="91ix18rcLDIFfsx1idJ1-80" edge="1">
                    <mxGeometry relative="1" as="geometry"/>
                </mxCell>
                <mxCell id="91ix18rcLDIFfsx1idJ1-78" value="设置自旋次数&lt;br&gt;spins &amp;amp; postSpins" style="rounded=0;whiteSpace=wrap;html=1;fillColor=#dae8fc;strokeColor=#6c8ebf;" parent="1" vertex="1">
                    <mxGeometry x="514.68" y="877.5" width="103.75" height="40" as="geometry"/>
                </mxCell>
                <mxCell id="91ix18rcLDIFfsx1idJ1-89" style="edgeStyle=orthogonalEdgeStyle;rounded=0;orthogonalLoop=1;jettySize=auto;html=1;exitX=0.5;exitY=1;exitDx=0;exitDy=0;entryX=0.5;entryY=0;entryDx=0;entryDy=0;" parent="1" source="91ix18rcLDIFfsx1idJ1-80" target="91ix18rcLDIFfsx1idJ1-88" edge="1">
                    <mxGeometry relative="1" as="geometry"/>
                </mxCell>
                <mxCell id="91ix18rcLDIFfsx1idJ1-103" style="edgeStyle=orthogonalEdgeStyle;rounded=0;orthogonalLoop=1;jettySize=auto;html=1;exitX=1;exitY=0.5;exitDx=0;exitDy=0;entryX=1;entryY=0.5;entryDx=0;entryDy=0;" parent="1" source="91ix18rcLDIFfsx1idJ1-80" target="91ix18rcLDIFfsx1idJ1-120" edge="1">
                    <mxGeometry relative="1" as="geometry">
                        <mxPoint x="215.62999999999374" y="1260" as="targetPoint"/>
                    </mxGeometry>
                </mxCell>
                <mxCell id="91ix18rcLDIFfsx1idJ1-104" value="是" style="edgeLabel;html=1;align=center;verticalAlign=middle;resizable=0;points=[];" parent="91ix18rcLDIFfsx1idJ1-103" vertex="1" connectable="0">
                    <mxGeometry x="-0.3963" y="3" relative="1" as="geometry">
                        <mxPoint as="offset"/>
                    </mxGeometry>
                </mxCell>
                <mxCell id="91ix18rcLDIFfsx1idJ1-80" value="超时？" style="rhombus;whiteSpace=wrap;html=1;" parent="1" vertex="1">
                    <mxGeometry x="521.24" y="950" width="90.63" height="45" as="geometry"/>
                </mxCell>
                <mxCell id="91ix18rcLDIFfsx1idJ1-91" style="edgeStyle=orthogonalEdgeStyle;rounded=0;orthogonalLoop=1;jettySize=auto;html=1;exitX=0.5;exitY=1;exitDx=0;exitDy=0;entryX=0.5;entryY=0;entryDx=0;entryDy=0;" parent="1" source="91ix18rcLDIFfsx1idJ1-88" target="91ix18rcLDIFfsx1idJ1-90" edge="1">
                    <mxGeometry relative="1" as="geometry"/>
                </mxCell>
                <mxCell id="91ix18rcLDIFfsx1idJ1-92" value="lock释放时唤醒" style="edgeLabel;html=1;align=center;verticalAlign=middle;resizable=0;points=[];" parent="91ix18rcLDIFfsx1idJ1-91" vertex="1" connectable="0">
                    <mxGeometry x="-0.2592" y="-4" relative="1" as="geometry">
                        <mxPoint x="4" as="offset"/>
                    </mxGeometry>
                </mxCell>
                <mxCell id="91ix18rcLDIFfsx1idJ1-88" value="休眠" style="rounded=0;whiteSpace=wrap;html=1;fillColor=#dae8fc;strokeColor=#6c8ebf;" parent="1" vertex="1">
                    <mxGeometry x="514.68" y="1020" width="103.75" height="40" as="geometry"/>
                </mxCell>
                <mxCell id="91ix18rcLDIFfsx1idJ1-127" style="edgeStyle=orthogonalEdgeStyle;rounded=0;orthogonalLoop=1;jettySize=auto;html=1;exitX=0;exitY=0.5;exitDx=0;exitDy=0;entryX=1;entryY=0.5;entryDx=0;entryDy=0;" parent="1" source="91ix18rcLDIFfsx1idJ1-90" target="91ix18rcLDIFfsx1idJ1-125" edge="1">
                    <mxGeometry relative="1" as="geometry"/>
                </mxCell>
                <mxCell id="91ix18rcLDIFfsx1idJ1-90" value="清空状态为0" style="rounded=0;whiteSpace=wrap;html=1;fillColor=#dae8fc;strokeColor=#6c8ebf;" parent="1" vertex="1">
                    <mxGeometry x="514.68" y="1100" width="103.75" height="40" as="geometry"/>
                </mxCell>
                <mxCell id="91ix18rcLDIFfsx1idJ1-98" style="edgeStyle=orthogonalEdgeStyle;rounded=0;orthogonalLoop=1;jettySize=auto;html=1;exitX=0;exitY=0.5;exitDx=0;exitDy=0;entryX=0;entryY=0.5;entryDx=0;entryDy=0;" parent="1" source="91ix18rcLDIFfsx1idJ1-94" target="91ix18rcLDIFfsx1idJ1-55" edge="1">
                    <mxGeometry relative="1" as="geometry"/>
                </mxCell>
                <mxCell id="91ix18rcLDIFfsx1idJ1-99" value="否" style="edgeLabel;html=1;align=center;verticalAlign=middle;resizable=0;points=[];" parent="91ix18rcLDIFfsx1idJ1-98" vertex="1" connectable="0">
                    <mxGeometry x="-0.6976" relative="1" as="geometry">
                        <mxPoint as="offset"/>
                    </mxGeometry>
                </mxCell>
                <mxCell id="91ix18rcLDIFfsx1idJ1-129" value="是" style="edgeStyle=orthogonalEdgeStyle;rounded=0;orthogonalLoop=1;jettySize=auto;html=1;exitX=0.5;exitY=1;exitDx=0;exitDy=0;entryX=0.5;entryY=0;entryDx=0;entryDy=0;" parent="1" source="91ix18rcLDIFfsx1idJ1-94" target="91ix18rcLDIFfsx1idJ1-120" edge="1">
                    <mxGeometry relative="1" as="geometry"/>
                </mxCell>
                <mxCell id="91ix18rcLDIFfsx1idJ1-94" value="线程被&lt;br&gt;中断且锁可中断" style="rhombus;whiteSpace=wrap;html=1;" parent="1" vertex="1">
                    <mxGeometry x="260" y="1095" width="90.63" height="45" as="geometry"/>
                </mxCell>
                <mxCell id="91ix18rcLDIFfsx1idJ1-106" style="edgeStyle=orthogonalEdgeStyle;rounded=0;orthogonalLoop=1;jettySize=auto;html=1;exitX=0.5;exitY=1;exitDx=0;exitDy=0;entryX=0;entryY=0.5;entryDx=0;entryDy=0;" parent="1" source="91ix18rcLDIFfsx1idJ1-100" target="91ix18rcLDIFfsx1idJ1-55" edge="1">
                    <mxGeometry relative="1" as="geometry">
                        <Array as="points">
                            <mxPoint x="252" y="930"/>
                            <mxPoint x="-278" y="930"/>
                            <mxPoint x="-278" y="340"/>
                        </Array>
                    </mxGeometry>
                </mxCell>
                <mxCell id="91ix18rcLDIFfsx1idJ1-100" value="自旋次数减少&lt;br&gt;线程空转 spins--" style="rounded=0;whiteSpace=wrap;html=1;fillColor=#dae8fc;strokeColor=#6c8ebf;" parent="1" vertex="1">
                    <mxGeometry x="199.99999999999994" y="875" width="103.75" height="40" as="geometry"/>
                </mxCell>
                <mxCell id="91ix18rcLDIFfsx1idJ1-110" value="否" style="edgeStyle=orthogonalEdgeStyle;rounded=0;orthogonalLoop=1;jettySize=auto;html=1;exitX=0.5;exitY=1;exitDx=0;exitDy=0;" parent="1" source="91ix18rcLDIFfsx1idJ1-108" target="91ix18rcLDIFfsx1idJ1-50" edge="1">
                    <mxGeometry relative="1" as="geometry"/>
                </mxCell>
                <mxCell id="91ix18rcLDIFfsx1idJ1-112" style="edgeStyle=orthogonalEdgeStyle;rounded=0;orthogonalLoop=1;jettySize=auto;html=1;exitX=1;exitY=0.5;exitDx=0;exitDy=0;" parent="1" source="91ix18rcLDIFfsx1idJ1-108" target="91ix18rcLDIFfsx1idJ1-111" edge="1">
                    <mxGeometry relative="1" as="geometry"/>
                </mxCell>
                <mxCell id="91ix18rcLDIFfsx1idJ1-108" value="不是第1个节点" style="rhombus;whiteSpace=wrap;html=1;" parent="1" vertex="1">
                    <mxGeometry x="-250" y="410" width="87.5" height="40" as="geometry"/>
                </mxCell>
                <mxCell id="91ix18rcLDIFfsx1idJ1-114" value="是" style="edgeStyle=orthogonalEdgeStyle;rounded=0;orthogonalLoop=1;jettySize=auto;html=1;exitX=1;exitY=0.5;exitDx=0;exitDy=0;" parent="1" source="91ix18rcLDIFfsx1idJ1-111" target="91ix18rcLDIFfsx1idJ1-113" edge="1">
                    <mxGeometry relative="1" as="geometry"/>
                </mxCell>
                <mxCell id="91ix18rcLDIFfsx1idJ1-116" value="否" style="edgeStyle=orthogonalEdgeStyle;rounded=0;orthogonalLoop=1;jettySize=auto;html=1;exitX=0.5;exitY=1;exitDx=0;exitDy=0;entryX=0.5;entryY=0;entryDx=0;entryDy=0;" parent="1" source="91ix18rcLDIFfsx1idJ1-111" target="91ix18rcLDIFfsx1idJ1-115" edge="1">
                    <mxGeometry relative="1" as="geometry"/>
                </mxCell>
                <mxCell id="91ix18rcLDIFfsx1idJ1-111" value="前继节点被取消&lt;br&gt;状态&amp;lt;0" style="rhombus;whiteSpace=wrap;html=1;" parent="1" vertex="1">
                    <mxGeometry x="-117.81" y="410" width="87.5" height="40" as="geometry"/>
                </mxCell>
                <mxCell id="91ix18rcLDIFfsx1idJ1-122" style="edgeStyle=orthogonalEdgeStyle;rounded=0;orthogonalLoop=1;jettySize=auto;html=1;exitX=0.5;exitY=1;exitDx=0;exitDy=0;" parent="1" source="91ix18rcLDIFfsx1idJ1-113" target="91ix18rcLDIFfsx1idJ1-121" edge="1">
                    <mxGeometry relative="1" as="geometry"/>
                </mxCell>
                <mxCell id="91ix18rcLDIFfsx1idJ1-113" value="清理queue" style="rounded=0;whiteSpace=wrap;html=1;fillColor=#dae8fc;strokeColor=#6c8ebf;" parent="1" vertex="1">
                    <mxGeometry x="19.999999999999996" y="410" width="103.75" height="40" as="geometry"/>
                </mxCell>
                <mxCell id="91ix18rcLDIFfsx1idJ1-117" value="否" style="edgeStyle=orthogonalEdgeStyle;rounded=0;orthogonalLoop=1;jettySize=auto;html=1;exitX=0;exitY=0.5;exitDx=0;exitDy=0;entryX=0.5;entryY=0;entryDx=0;entryDy=0;" parent="1" source="91ix18rcLDIFfsx1idJ1-115" target="91ix18rcLDIFfsx1idJ1-50" edge="1">
                    <mxGeometry relative="1" as="geometry"/>
                </mxCell>
                <mxCell id="91ix18rcLDIFfsx1idJ1-119" style="edgeStyle=orthogonalEdgeStyle;rounded=0;orthogonalLoop=1;jettySize=auto;html=1;exitX=1;exitY=0.5;exitDx=0;exitDy=0;entryX=1;entryY=0.5;entryDx=0;entryDy=0;" parent="1" source="91ix18rcLDIFfsx1idJ1-115" target="91ix18rcLDIFfsx1idJ1-55" edge="1">
                    <mxGeometry relative="1" as="geometry"/>
                </mxCell>
                <mxCell id="91ix18rcLDIFfsx1idJ1-115" value="前继.&lt;br&gt;prev==null" style="rhombus;whiteSpace=wrap;html=1;" parent="1" vertex="1">
                    <mxGeometry x="-117.81" y="490" width="87.5" height="40" as="geometry"/>
                </mxCell>
                <mxCell id="91ix18rcLDIFfsx1idJ1-132" style="edgeStyle=orthogonalEdgeStyle;rounded=0;orthogonalLoop=1;jettySize=auto;html=1;exitX=0.5;exitY=1;exitDx=0;exitDy=0;entryX=0.5;entryY=0;entryDx=0;entryDy=0;" parent="1" source="91ix18rcLDIFfsx1idJ1-120" target="91ix18rcLDIFfsx1idJ1-130" edge="1">
                    <mxGeometry relative="1" as="geometry"/>
                </mxCell>
                <mxCell id="91ix18rcLDIFfsx1idJ1-120" value="节点取消加锁" style="rounded=0;whiteSpace=wrap;html=1;fillColor=#dae8fc;strokeColor=#6c8ebf;" parent="1" vertex="1">
                    <mxGeometry x="123.74999999999994" y="1200" width="103.75" height="40" as="geometry"/>
                </mxCell>
                <mxCell id="91ix18rcLDIFfsx1idJ1-137" style="edgeStyle=orthogonalEdgeStyle;rounded=0;orthogonalLoop=1;jettySize=auto;html=1;exitX=0.5;exitY=1;exitDx=0;exitDy=0;entryX=0.5;entryY=0;entryDx=0;entryDy=0;" parent="1" source="91ix18rcLDIFfsx1idJ1-121" target="91ix18rcLDIFfsx1idJ1-124" edge="1">
                    <mxGeometry relative="1" as="geometry"/>
                </mxCell>
                <mxCell id="91ix18rcLDIFfsx1idJ1-121" value="&lt;span&gt;移除所有取消状态的node&lt;/span&gt;" style="rounded=0;whiteSpace=wrap;html=1;fillColor=#dae8fc;strokeColor=#6c8ebf;" parent="1" vertex="1">
                    <mxGeometry x="19.999999999999996" y="490" width="103.75" height="40" as="geometry"/>
                </mxCell>
                <mxCell id="91ix18rcLDIFfsx1idJ1-138" style="edgeStyle=orthogonalEdgeStyle;rounded=0;orthogonalLoop=1;jettySize=auto;html=1;exitX=0.5;exitY=1;exitDx=0;exitDy=0;entryX=1;entryY=0.5;entryDx=0;entryDy=0;" parent="1" source="91ix18rcLDIFfsx1idJ1-124" target="91ix18rcLDIFfsx1idJ1-55" edge="1">
                    <mxGeometry relative="1" as="geometry">
                        <Array as="points">
                            <mxPoint x="72" y="625"/>
                            <mxPoint x="160" y="625"/>
                            <mxPoint x="160" y="340"/>
                        </Array>
                    </mxGeometry>
                </mxCell>
                <mxCell id="91ix18rcLDIFfsx1idJ1-124" value="唤醒next" style="rounded=0;whiteSpace=wrap;html=1;fillColor=#dae8fc;strokeColor=#6c8ebf;" parent="1" vertex="1">
                    <mxGeometry x="19.999999999999996" y="565" width="103.75" height="40" as="geometry"/>
                </mxCell>
                <mxCell id="91ix18rcLDIFfsx1idJ1-128" style="edgeStyle=orthogonalEdgeStyle;rounded=0;orthogonalLoop=1;jettySize=auto;html=1;exitX=0;exitY=0.5;exitDx=0;exitDy=0;entryX=1;entryY=0.5;entryDx=0;entryDy=0;" parent="1" source="91ix18rcLDIFfsx1idJ1-125" target="91ix18rcLDIFfsx1idJ1-94" edge="1">
                    <mxGeometry relative="1" as="geometry"/>
                </mxCell>
                <mxCell id="91ix18rcLDIFfsx1idJ1-125" value="清空线程中断" style="rounded=0;whiteSpace=wrap;html=1;fillColor=#dae8fc;strokeColor=#6c8ebf;" parent="1" vertex="1">
                    <mxGeometry x="379.99999999999994" y="1100" width="103.75" height="40" as="geometry"/>
                </mxCell>
                <mxCell id="91ix18rcLDIFfsx1idJ1-133" style="edgeStyle=orthogonalEdgeStyle;rounded=0;orthogonalLoop=1;jettySize=auto;html=1;exitX=0.5;exitY=1;exitDx=0;exitDy=0;entryX=0.5;entryY=0;entryDx=0;entryDy=0;" parent="1" source="91ix18rcLDIFfsx1idJ1-130" target="91ix18rcLDIFfsx1idJ1-131" edge="1">
                    <mxGeometry relative="1" as="geometry"/>
                </mxCell>
                <mxCell id="91ix18rcLDIFfsx1idJ1-130" value="清空node为虚节点status=cancelled" style="rounded=0;whiteSpace=wrap;html=1;fillColor=#dae8fc;strokeColor=#6c8ebf;" parent="1" vertex="1">
                    <mxGeometry x="123.74999999999994" y="1260" width="103.75" height="40" as="geometry"/>
                </mxCell>
                <mxCell id="91ix18rcLDIFfsx1idJ1-136" value="是" style="edgeStyle=orthogonalEdgeStyle;rounded=0;orthogonalLoop=1;jettySize=auto;html=1;exitX=0.5;exitY=1;exitDx=0;exitDy=0;" parent="1" source="91ix18rcLDIFfsx1idJ1-131" target="91ix18rcLDIFfsx1idJ1-135" edge="1">
                    <mxGeometry relative="1" as="geometry"/>
                </mxCell>
                <mxCell id="91ix18rcLDIFfsx1idJ1-131" value="存在前继节点" style="rhombus;whiteSpace=wrap;html=1;" parent="1" vertex="1">
                    <mxGeometry x="130.31" y="1330" width="90.63" height="45" as="geometry"/>
                </mxCell>
                <mxCell id="91ix18rcLDIFfsx1idJ1-140" style="edgeStyle=orthogonalEdgeStyle;rounded=0;orthogonalLoop=1;jettySize=auto;html=1;exitX=0.5;exitY=1;exitDx=0;exitDy=0;" parent="1" source="91ix18rcLDIFfsx1idJ1-135" target="91ix18rcLDIFfsx1idJ1-139" edge="1">
                    <mxGeometry relative="1" as="geometry"/>
                </mxCell>
                <mxCell id="91ix18rcLDIFfsx1idJ1-135" value="清理queue&lt;br&gt;return 0" style="rounded=0;whiteSpace=wrap;html=1;fillColor=#dae8fc;strokeColor=#6c8ebf;" parent="1" vertex="1">
                    <mxGeometry x="123.75" y="1410" width="103.75" height="40" as="geometry"/>
                </mxCell>
                <mxCell id="91ix18rcLDIFfsx1idJ1-139" value="end" style="ellipse;whiteSpace=wrap;html=1;" parent="1" vertex="1">
                    <mxGeometry x="115.63" y="1480" width="120" height="80" as="geometry"/>
                </mxCell>
                <mxCell id="91ix18rcLDIFfsx1idJ1-145" value="是" style="edgeStyle=orthogonalEdgeStyle;rounded=0;orthogonalLoop=1;jettySize=auto;html=1;exitX=1;exitY=0.5;exitDx=0;exitDy=0;entryX=0;entryY=0.5;entryDx=0;entryDy=0;" parent="1" source="91ix18rcLDIFfsx1idJ1-143" target="91ix18rcLDIFfsx1idJ1-144" edge="1">
                    <mxGeometry relative="1" as="geometry"/>
                </mxCell>
                <mxCell id="91ix18rcLDIFfsx1idJ1-159" style="edgeStyle=orthogonalEdgeStyle;rounded=0;orthogonalLoop=1;jettySize=auto;html=1;exitX=0.5;exitY=1;exitDx=0;exitDy=0;entryX=0.5;entryY=1;entryDx=0;entryDy=0;" parent="1" source="91ix18rcLDIFfsx1idJ1-143" target="91ix18rcLDIFfsx1idJ1-157" edge="1">
                    <mxGeometry relative="1" as="geometry"/>
                </mxCell>
                <mxCell id="91ix18rcLDIFfsx1idJ1-143" value="是第一个节点" style="rhombus;whiteSpace=wrap;html=1;" parent="1" vertex="1">
                    <mxGeometry x="-120" y="632.5" width="81.88" height="40" as="geometry"/>
                </mxCell>
                <mxCell id="91ix18rcLDIFfsx1idJ1-147" style="edgeStyle=orthogonalEdgeStyle;rounded=0;orthogonalLoop=1;jettySize=auto;html=1;exitX=1;exitY=0.5;exitDx=0;exitDy=0;entryX=0;entryY=0.5;entryDx=0;entryDy=0;" parent="1" source="91ix18rcLDIFfsx1idJ1-144" target="91ix18rcLDIFfsx1idJ1-146" edge="1">
                    <mxGeometry relative="1" as="geometry"/>
                </mxCell>
                <mxCell id="91ix18rcLDIFfsx1idJ1-144" value="清空node为虚节点&lt;br&gt;保留status" style="rounded=0;whiteSpace=wrap;html=1;fillColor=#dae8fc;strokeColor=#6c8ebf;" parent="1" vertex="1">
                    <mxGeometry x="11.879999999999946" y="632.5" width="103.75" height="40" as="geometry"/>
                </mxCell>
                <mxCell id="91ix18rcLDIFfsx1idJ1-150" value="是" style="edgeStyle=orthogonalEdgeStyle;rounded=0;orthogonalLoop=1;jettySize=auto;html=1;exitX=1;exitY=0.5;exitDx=0;exitDy=0;" parent="1" source="91ix18rcLDIFfsx1idJ1-146" target="91ix18rcLDIFfsx1idJ1-149" edge="1">
                    <mxGeometry relative="1" as="geometry"/>
                </mxCell>
                <mxCell id="91ix18rcLDIFfsx1idJ1-160" style="edgeStyle=orthogonalEdgeStyle;rounded=0;orthogonalLoop=1;jettySize=auto;html=1;exitX=0.5;exitY=1;exitDx=0;exitDy=0;entryX=0.5;entryY=1;entryDx=0;entryDy=0;" parent="1" source="91ix18rcLDIFfsx1idJ1-146" target="91ix18rcLDIFfsx1idJ1-157" edge="1">
                    <mxGeometry relative="1" as="geometry"/>
                </mxCell>
                <mxCell id="91ix18rcLDIFfsx1idJ1-162" value="否" style="edgeLabel;html=1;align=center;verticalAlign=middle;resizable=0;points=[];" parent="91ix18rcLDIFfsx1idJ1-160" vertex="1" connectable="0">
                    <mxGeometry x="-0.3952" y="2" relative="1" as="geometry">
                        <mxPoint y="1" as="offset"/>
                    </mxGeometry>
                </mxCell>
                <mxCell id="91ix18rcLDIFfsx1idJ1-146" value="是中断的" style="rhombus;whiteSpace=wrap;html=1;" parent="1" vertex="1">
                    <mxGeometry x="160" y="632.5" width="81.88" height="40" as="geometry"/>
                </mxCell>
                <mxCell id="91ix18rcLDIFfsx1idJ1-158" style="edgeStyle=orthogonalEdgeStyle;rounded=0;orthogonalLoop=1;jettySize=auto;html=1;exitX=1;exitY=0.5;exitDx=0;exitDy=0;entryX=0;entryY=0.5;entryDx=0;entryDy=0;" parent="1" source="91ix18rcLDIFfsx1idJ1-149" target="91ix18rcLDIFfsx1idJ1-157" edge="1">
                    <mxGeometry relative="1" as="geometry"/>
                </mxCell>
                <mxCell id="91ix18rcLDIFfsx1idJ1-149" value="恢复中断" style="rounded=0;whiteSpace=wrap;html=1;fillColor=#dae8fc;strokeColor=#6c8ebf;" parent="1" vertex="1">
                    <mxGeometry x="289.68999999999994" y="632.5" width="103.75" height="40" as="geometry"/>
                </mxCell>
                <mxCell id="91ix18rcLDIFfsx1idJ1-163" style="edgeStyle=orthogonalEdgeStyle;rounded=0;orthogonalLoop=1;jettySize=auto;html=1;exitX=1;exitY=0.5;exitDx=0;exitDy=0;entryX=1;entryY=0.5;entryDx=0;entryDy=0;" parent="1" source="91ix18rcLDIFfsx1idJ1-157" target="91ix18rcLDIFfsx1idJ1-139" edge="1">
                    <mxGeometry relative="1" as="geometry">
                        <Array as="points">
                            <mxPoint x="670" y="653"/>
                            <mxPoint x="670" y="1520"/>
                        </Array>
                    </mxGeometry>
                </mxCell>
                <mxCell id="91ix18rcLDIFfsx1idJ1-157" value="return 1" style="rounded=0;whiteSpace=wrap;html=1;fillColor=#dae8fc;strokeColor=#6c8ebf;" parent="1" vertex="1">
                    <mxGeometry x="439.99999999999994" y="632.5" width="103.75" height="40" as="geometry"/>
                </mxCell>
                <mxCell id="91ix18rcLDIFfsx1idJ1-165" value="唤醒next" style="rounded=0;whiteSpace=wrap;html=1;fillColor=#dae8fc;strokeColor=#6c8ebf;" parent="1" vertex="1">
                    <mxGeometry x="370" y="510" width="103.75" height="40" as="geometry"/>
                </mxCell>
                <mxCell id="91ix18rcLDIFfsx1idJ1-167" value="否" style="edgeStyle=orthogonalEdgeStyle;rounded=0;orthogonalLoop=1;jettySize=auto;html=1;exitX=0.5;exitY=1;exitDx=0;exitDy=0;entryX=0.5;entryY=0;entryDx=0;entryDy=0;" parent="1" source="91ix18rcLDIFfsx1idJ1-166" target="91ix18rcLDIFfsx1idJ1-44" edge="1">
                    <mxGeometry relative="1" as="geometry"/>
                </mxCell>
                <mxCell id="91ix18rcLDIFfsx1idJ1-168" style="edgeStyle=orthogonalEdgeStyle;rounded=0;orthogonalLoop=1;jettySize=auto;html=1;exitX=1;exitY=0.5;exitDx=0;exitDy=0;entryX=1;entryY=0.5;entryDx=0;entryDy=0;" parent="1" source="91ix18rcLDIFfsx1idJ1-166" target="91ix18rcLDIFfsx1idJ1-120" edge="1">
                    <mxGeometry relative="1" as="geometry">
                        <Array as="points">
                            <mxPoint x="650" y="730"/>
                            <mxPoint x="650" y="1220"/>
                        </Array>
                    </mxGeometry>
                </mxCell>
                <mxCell id="91ix18rcLDIFfsx1idJ1-169" value="是" style="edgeLabel;html=1;align=center;verticalAlign=middle;resizable=0;points=[];" parent="91ix18rcLDIFfsx1idJ1-168" vertex="1" connectable="0">
                    <mxGeometry x="-0.9449" y="-2" relative="1" as="geometry">
                        <mxPoint as="offset"/>
                    </mxGeometry>
                </mxCell>
                <mxCell id="91ix18rcLDIFfsx1idJ1-166" value="出现异常" style="rhombus;whiteSpace=wrap;html=1;" parent="1" vertex="1">
                    <mxGeometry x="-250" y="710" width="87.5" height="40" as="geometry"/>
                </mxCell>
            </root>
        </mxGraphModel>
    </diagram>
</mxfile>